<svg viewBox="117 143 275 83" xmlns="http://www.w3.org/2000/svg" style="max-height: 500px" width="275" height="83">
  <a>
    <circle style="stroke-width: 1;" fill="#A2E7AF" r="11" cy="159.504" cx="199.369"/>
    <path data-index="0" style="opacity: 1;" fill="#40AA54" d="M 147.334 199.904 L 184.417 199.904 C 187.528 199.904 190.228 197.848 190.98 194.914 L 199.3 163.047 C 199.471 162.389 199.322 161.69 198.895 161.154 C 198.467 160.618 197.81 160.304 197.113 160.304 L 137.726 160.304 L 136.393 156.137 C 135.506 153.366 132.909 151.504 129.933 151.504 L 124.625 151.504 C 123.379 151.504 122.369 152.489 122.369 153.704 C 122.369 154.919 123.379 155.904 124.625 155.904 L 129.933 155.904 C 130.925 155.904 131.79 156.525 132.086 157.448 C 132.758 159.548 143.746 193.877 144.467 196.128 C 142.165 197.182 140.567 199.464 140.567 202.104 C 140.567 205.743 143.603 208.702 147.334 208.702 L 149.978 208.702 C 149.728 209.391 149.59 210.133 149.59 210.904 C 149.59 214.543 152.626 217.504 156.358 217.504 C 160.089 217.504 163.125 214.543 163.125 210.904 C 163.125 210.133 162.988 209.393 162.737 208.702 L 172.537 208.702 C 172.286 209.393 172.149 210.133 172.149 210.904 C 172.149 214.543 175.185 217.504 178.916 217.504 C 182.648 217.504 185.684 214.543 185.684 210.904 C 185.684 210.133 185.546 209.393 185.296 208.704 L 187.94 208.704 C 189.185 208.704 190.195 207.719 190.195 206.504 C 190.195 205.289 189.185 204.304 187.94 204.304 L 147.334 204.304 C 146.09 204.304 145.078 203.317 145.078 202.104 C 145.078 200.891 146.09 199.904 147.334 199.904 Z M 158.613 210.904 C 158.613 212.117 157.601 213.104 156.358 213.104 C 155.114 213.104 154.102 212.117 154.102 210.904 C 154.102 209.691 155.114 208.704 156.358 208.704 C 157.601 208.704 158.613 209.691 158.613 210.904 Z M 181.172 210.904 C 181.172 212.117 180.16 213.104 178.916 213.104 C 177.672 213.104 176.66 212.117 176.66 210.904 C 176.66 209.691 177.672 208.704 178.916 208.704 C 180.16 208.704 181.172 209.691 181.172 210.904 Z M 174.105 182.304 L 172.413 195.504 L 162.861 195.504 L 161.169 182.304 L 174.105 182.304 Z M 160.605 177.904 L 158.913 164.704 L 176.361 164.704 L 174.669 177.904 L 160.605 177.904 Z M 158.314 195.504 L 148.993 195.504 L 144.768 182.304 L 156.622 182.304 L 158.314 195.504 Z M 186.605 193.838 C 186.354 194.819 185.454 195.504 184.417 195.504 L 176.96 195.504 L 178.652 182.304 L 189.616 182.304 L 186.605 193.838 Z M 190.765 177.904 L 179.216 177.904 L 180.907 164.704 L 194.211 164.704 L 190.765 177.904 Z M 154.366 164.704 L 156.058 177.904 L 143.36 177.904 L 139.135 164.704 L 154.366 164.704 Z"/>
    <path data-index="1" style="stroke-width: 1;" fill="#16162E" d="M 231.669 203.504 L 233.529 203.504 L 229.449 214.124 C 229.022 215.257 228.422 216.117 227.649 216.704 C 226.889 217.304 226.009 217.571 225.009 217.504 L 225.009 215.884 C 226.236 215.977 227.136 215.297 227.709 213.844 L 227.889 213.464 L 223.529 203.504 L 225.389 203.504 L 228.789 211.344 L 231.669 203.504 Z M 243.531 212.244 C 242.505 213.257 241.258 213.764 239.791 213.764 C 238.325 213.764 237.078 213.257 236.051 212.244 C 235.038 211.231 234.531 209.984 234.531 208.504 C 234.531 207.024 235.038 205.777 236.051 204.764 C 237.078 203.751 238.325 203.244 239.791 203.244 C 241.258 203.244 242.505 203.751 243.531 204.764 C 244.558 205.777 245.071 207.024 245.071 208.504 C 245.071 209.984 244.558 211.231 243.531 212.244 Z M 239.791 212.064 C 240.791 212.064 241.631 211.724 242.311 211.044 C 242.991 210.364 243.331 209.517 243.331 208.504 C 243.331 207.491 242.991 206.644 242.311 205.964 C 241.631 205.284 240.791 204.944 239.791 204.944 C 238.805 204.944 237.971 205.284 237.291 205.964 C 236.611 206.644 236.271 207.491 236.271 208.504 C 236.271 209.517 236.611 210.364 237.291 211.044 C 237.971 211.724 238.805 212.064 239.791 212.064 Z M 254.523 203.504 L 256.263 203.504 L 256.263 213.504 L 254.523 213.504 L 254.523 212.064 C 253.816 213.197 252.736 213.764 251.283 213.764 C 250.109 213.764 249.169 213.397 248.463 212.664 C 247.756 211.917 247.403 210.911 247.403 209.644 L 247.403 203.504 L 249.143 203.504 L 249.143 209.544 C 249.143 210.357 249.363 210.991 249.803 211.444 C 250.243 211.884 250.849 212.104 251.623 212.104 C 252.489 212.104 253.189 211.837 253.723 211.304 C 254.256 210.757 254.523 209.924 254.523 208.804 L 254.523 203.504 Z M 261.152 205.184 C 261.725 203.944 262.765 203.324 264.272 203.324 L 264.272 205.144 C 263.418 205.104 262.685 205.331 262.072 205.824 C 261.458 206.317 261.152 207.111 261.152 208.204 L 261.152 213.504 L 259.412 213.504 L 259.412 203.504 L 261.152 203.504 L 261.152 205.184 Z M 280.254 199.504 L 281.994 199.504 L 281.994 213.504 L 280.254 213.504 L 280.254 211.784 C 279.387 213.104 278.127 213.764 276.474 213.764 C 275.074 213.764 273.881 213.257 272.894 212.244 C 271.907 211.217 271.414 209.971 271.414 208.504 C 271.414 207.037 271.907 205.797 272.894 204.784 C 273.881 203.757 275.074 203.244 276.474 203.244 C 278.127 203.244 279.387 203.904 280.254 205.224 L 280.254 199.504 Z M 276.694 212.084 C 277.707 212.084 278.554 211.744 279.234 211.064 C 279.914 210.371 280.254 209.517 280.254 208.504 C 280.254 207.491 279.914 206.644 279.234 205.964 C 278.554 205.271 277.707 204.924 276.694 204.924 C 275.694 204.924 274.854 205.271 274.174 205.964 C 273.494 206.644 273.154 207.491 273.154 208.504 C 273.154 209.517 273.494 210.371 274.174 211.064 C 274.854 211.744 275.694 212.084 276.694 212.084 Z M 293.41 203.504 L 295.15 203.504 L 295.15 213.504 L 293.41 213.504 L 293.41 211.784 C 292.544 213.104 291.284 213.764 289.63 213.764 C 288.23 213.764 287.037 213.257 286.05 212.244 C 285.064 211.217 284.57 209.971 284.57 208.504 C 284.57 207.037 285.064 205.797 286.05 204.784 C 287.037 203.757 288.23 203.244 289.63 203.244 C 291.284 203.244 292.544 203.904 293.41 205.224 L 293.41 203.504 Z M 289.85 212.084 C 290.864 212.084 291.71 211.744 292.39 211.064 C 293.07 210.371 293.41 209.517 293.41 208.504 C 293.41 207.491 293.07 206.644 292.39 205.964 C 291.71 205.271 290.864 204.924 289.85 204.924 C 288.85 204.924 288.01 205.271 287.33 205.964 C 286.65 206.644 286.31 207.491 286.31 208.504 C 286.31 209.517 286.65 210.371 287.33 211.064 C 288.01 211.744 288.85 212.084 289.85 212.084 Z M 299.167 201.684 C 298.833 201.684 298.553 201.571 298.327 201.344 C 298.1 201.117 297.987 200.844 297.987 200.524 C 297.987 200.204 298.1 199.931 298.327 199.704 C 298.553 199.464 298.833 199.344 299.167 199.344 C 299.487 199.344 299.76 199.464 299.987 199.704 C 300.213 199.931 300.327 200.204 300.327 200.524 C 300.327 200.844 300.213 201.117 299.987 201.344 C 299.76 201.571 299.487 201.684 299.167 201.684 Z M 298.287 213.504 L 298.287 203.504 L 300.027 203.504 L 300.027 213.504 L 298.287 213.504 Z M 303.181 213.504 L 303.181 198.904 L 304.921 198.904 L 304.921 213.504 L 303.181 213.504 Z M 315.056 203.504 L 316.916 203.504 L 312.836 214.124 C 312.409 215.257 311.809 216.117 311.036 216.704 C 310.276 217.304 309.396 217.571 308.396 217.504 L 308.396 215.884 C 309.622 215.977 310.522 215.297 311.096 213.844 L 311.276 213.464 L 306.916 203.504 L 308.776 203.504 L 312.176 211.344 L 315.056 203.504 Z M 329.349 203.244 C 330.522 203.244 331.462 203.617 332.169 204.364 C 332.875 205.097 333.229 206.097 333.229 207.364 L 333.229 213.504 L 331.489 213.504 L 331.489 207.464 C 331.489 206.651 331.269 206.024 330.829 205.584 C 330.389 205.131 329.782 204.904 329.009 204.904 C 328.142 204.904 327.442 205.177 326.909 205.724 C 326.375 206.257 326.109 207.084 326.109 208.204 L 326.109 213.504 L 324.369 213.504 L 324.369 203.504 L 326.109 203.504 L 326.109 204.944 C 326.815 203.811 327.895 203.244 329.349 203.244 Z M 337.378 209.304 C 337.551 210.197 337.958 210.891 338.598 211.384 C 339.251 211.877 340.051 212.124 340.998 212.124 C 342.318 212.124 343.278 211.637 343.878 210.664 L 345.358 211.504 C 344.384 213.011 342.918 213.764 340.958 213.764 C 339.371 213.764 338.078 213.271 337.078 212.284 C 336.091 211.284 335.598 210.024 335.598 208.504 C 335.598 206.997 336.084 205.744 337.058 204.744 C 338.031 203.744 339.291 203.244 340.838 203.244 C 342.304 203.244 343.498 203.764 344.418 204.804 C 345.351 205.831 345.818 207.071 345.818 208.524 C 345.818 208.777 345.798 209.037 345.758 209.304 L 337.378 209.304 Z M 340.838 204.884 C 339.904 204.884 339.131 205.151 338.518 205.684 C 337.904 206.204 337.524 206.904 337.378 207.784 L 344.058 207.784 C 343.911 206.837 343.538 206.117 342.938 205.624 C 342.338 205.131 341.638 204.884 340.838 204.884 Z M 349.518 209.304 C 349.692 210.197 350.098 210.891 350.738 211.384 C 351.392 211.877 352.192 212.124 353.138 212.124 C 354.458 212.124 355.418 211.637 356.018 210.664 L 357.498 211.504 C 356.525 213.011 355.058 213.764 353.098 213.764 C 351.512 213.764 350.218 213.271 349.218 212.284 C 348.232 211.284 347.738 210.024 347.738 208.504 C 347.738 206.997 348.225 205.744 349.198 204.744 C 350.172 203.744 351.432 203.244 352.978 203.244 C 354.445 203.244 355.638 203.764 356.558 204.804 C 357.492 205.831 357.958 207.071 357.958 208.524 C 357.958 208.777 357.938 209.037 357.898 209.304 L 349.518 209.304 Z M 352.978 204.884 C 352.045 204.884 351.272 205.151 350.658 205.684 C 350.045 206.204 349.665 206.904 349.518 207.784 L 356.198 207.784 C 356.052 206.837 355.678 206.117 355.078 205.624 C 354.478 205.131 353.778 204.884 352.978 204.884 Z M 368.719 199.504 L 370.459 199.504 L 370.459 213.504 L 368.719 213.504 L 368.719 211.784 C 367.852 213.104 366.592 213.764 364.939 213.764 C 363.539 213.764 362.346 213.257 361.359 212.244 C 360.372 211.217 359.879 209.971 359.879 208.504 C 359.879 207.037 360.372 205.797 361.359 204.784 C 362.346 203.757 363.539 203.244 364.939 203.244 C 366.592 203.244 367.852 203.904 368.719 205.224 L 368.719 199.504 Z M 365.159 212.084 C 366.172 212.084 367.019 211.744 367.699 211.064 C 368.379 210.371 368.719 209.517 368.719 208.504 C 368.719 207.491 368.379 206.644 367.699 205.964 C 367.019 205.271 366.172 204.924 365.159 204.924 C 364.159 204.924 363.319 205.271 362.639 205.964 C 361.959 206.644 361.619 207.491 361.619 208.504 C 361.619 209.517 361.959 210.371 362.639 211.064 C 363.319 211.744 364.159 212.084 365.159 212.084 Z M 375.076 206.204 C 375.076 206.591 375.269 206.904 375.656 207.144 C 376.042 207.371 376.509 207.557 377.056 207.704 C 377.602 207.837 378.149 207.997 378.696 208.184 C 379.242 208.357 379.709 208.664 380.096 209.104 C 380.482 209.531 380.676 210.084 380.676 210.764 C 380.676 211.671 380.322 212.397 379.616 212.944 C 378.922 213.491 378.029 213.764 376.936 213.764 C 375.962 213.764 375.129 213.551 374.436 213.124 C 373.742 212.697 373.249 212.131 372.956 211.424 L 374.456 210.564 C 374.616 211.044 374.916 211.424 375.356 211.704 C 375.796 211.984 376.322 212.124 376.936 212.124 C 377.509 212.124 377.982 212.017 378.356 211.804 C 378.729 211.577 378.916 211.231 378.916 210.764 C 378.916 210.377 378.722 210.071 378.336 209.844 C 377.949 209.604 377.482 209.417 376.936 209.284 C 376.389 209.137 375.842 208.971 375.296 208.784 C 374.749 208.597 374.282 208.291 373.896 207.864 C 373.509 207.437 373.316 206.891 373.316 206.224 C 373.316 205.357 373.649 204.644 374.316 204.084 C 374.996 203.524 375.842 203.244 376.856 203.244 C 377.669 203.244 378.389 203.431 379.016 203.804 C 379.656 204.164 380.136 204.671 380.456 205.324 L 378.996 206.144 C 378.636 205.291 377.922 204.864 376.856 204.864 C 376.362 204.864 375.942 204.984 375.596 205.224 C 375.249 205.451 375.076 205.777 375.076 206.204 Z" opacity="0.7"/>
    <text transform="matrix(1.355925, 0, 0, 1.186593, -82.212181, -32.374207)" y="184.501" x="223.492" style="fill: rgb(51, 51, 51); font-family: Arial, sans-serif; font-size: 28px; font-weight: 700; white-space: pre;">Santap</text>
    <text y="184.501" x="223.492" transform="matrix(1.355925, 0, 0, 1.186593, 43.767643, -31.159611)" style="fill: rgb(64, 170, 84); font-family: Arial, sans-serif; font-size: 20.6406px; font-weight: 700; line-height: 42.6572px; white-space: pre;">.id</text>
  </a>
</svg>